<?xml version="1.0" encoding="utf-8"?>
<!-- Generator: Adobe Illustrator 16.0.0, SVG Export Plug-In . SVG Version: 6.00 Build 0)  -->
<!DOCTYPE svg PUBLIC "-//W3C//DTD SVG 1.1//EN" "http://www.w3.org/Graphics/SVG/1.1/DTD/svg11.dtd">
<svg version="1.1" id="Layer_1" xmlns="http://www.w3.org/2000/svg" xmlns:xlink="http://www.w3.org/1999/xlink" x="0px" y="0px"
     width="218.5px" height="237.1px" viewBox="2.25 2.2 218.5 237.1" enable-background="new 2.25 2.2 218.5 237.1"
     xml:space="preserve">
<g>
    <path fill="none" d="M153.589,80.95l-28.092-15.86c-7.754-4.417-20.441-4.417-28.195,0L69.412,80.95
        c-3.928,2.208-7.452,6.022-9.969,10.339s-4.128,9.135-4.128,13.551v31.719c0,8.734,6.343,19.574,14.097,23.892l28.092,15.859
        c3.826,2.209,8.961,3.313,14.096,3.313c5.035,0,10.171-1.104,14.098-3.313l28.093-15.859c7.754-4.417,14.097-15.157,14.097-23.892
        V104.84c0-4.417-1.61-9.335-4.128-13.652C160.939,86.872,157.517,83.058,153.589,80.95z"/>
    <path fill="#444444" d="M216.521,61.074c-2.518-4.216-6.041-7.93-9.768-10.138L125.597,5.063c-7.753-4.417-20.44-4.417-28.193,0
        L16.347,50.936c-3.927,2.208-7.451,6.023-9.968,10.439C3.861,65.692,2.25,70.51,2.25,74.826v91.747
        c0,8.835,6.343,19.574,14.097,23.892l81.057,45.973c3.826,2.21,8.961,3.313,14.097,3.313c5.035,0,10.17-1.104,14.097-3.313
        l81.057-45.873c7.753-4.417,14.097-15.156,14.097-23.891V74.826C220.75,70.41,219.139,65.391,216.521,61.074z M167.686,136.559
        c0,8.734-6.343,19.574-14.097,23.892l-28.092,15.859c-3.827,2.209-8.962,3.313-14.098,3.313s-10.271-1.104-14.097-3.313
        L69.21,160.451c-7.754-4.417-14.097-15.157-14.097-23.892V104.84c0-4.316,1.611-9.235,4.128-13.551
        c2.518-4.316,6.143-8.231,9.969-10.339l28.092-15.86c7.754-4.417,20.339-4.417,28.195,0l28.092,15.86
        c3.826,2.208,7.351,5.922,9.969,10.238c2.617,4.316,4.128,9.235,4.128,13.652V136.559z"/>
</g>
</svg>
