<?xml version="1.0" encoding="utf-8"?>
<!-- Generator: Adobe Illustrator 16.0.0, SVG Export Plug-In . SVG Version: 6.00 Build 0)  -->
<!DOCTYPE svg PUBLIC "-//W3C//DTD SVG 1.1//EN" "http://www.w3.org/Graphics/SVG/1.1/DTD/svg11.dtd">
<svg version="1.1" id="Layer_1" xmlns="http://www.w3.org/2000/svg" xmlns:xlink="http://www.w3.org/1999/xlink" x="0px" y="0px"
     width="343.999px" height="376.024px" viewBox="0 0 343.999 376.024" enable-background="new 0 0 343.999 376.024"
     xml:space="preserve">
<path fill="#454545" d="M343.999,162.401V25.2c0-8.2-3.001-17.2-7.803-25.2l-60.117,34.301c2.601,4.399,4.303,9.299,4.303,13.799
    V139.5c0,8.801-6.303,19.5-14.005,23.801L185.853,209c-1.199,0.701-2.6,1.301-4.001,1.801c-0.5,0.199-0.899,0.299-1.399,0.4
    c-0.201,0.1-0.4,0.1-0.602,0.199c-2.5,0.6-5.101,0.9-7.701,0.9c-5.102,0-10.103-1.1-14.004-3.301l-80.724-45.699
    c-2.701-1.602-5.302-3.9-7.502-6.701c-0.101,0-0.101,0-0.2,0l0,0c-0.199-0.199-0.3-0.5-0.5-0.699c-0.199-0.201-0.4-0.5-0.5-0.801
    c-0.199-0.199-0.3-0.5-0.5-0.699c-0.199-0.301-0.4-0.6-0.5-0.801c-0.1-0.199-0.3-0.4-0.4-0.699c-0.199-0.4-0.4-0.701-0.6-1.1
    c-0.1-0.201-0.199-0.301-0.199-0.5c-0.301-0.5-0.5-1-0.701-1.5c-0.1-0.201-0.199-0.4-0.199-0.602c-0.1-0.398-0.301-0.699-0.401-1.1
    c-0.1-0.199-0.199-0.4-0.199-0.6c-0.101-0.301-0.201-0.699-0.301-1c-0.1-0.199-0.1-0.4-0.199-0.699
    c-0.101-0.301-0.201-0.701-0.301-1c-0.1-0.201-0.1-0.4-0.199-0.701c-0.101-0.299-0.101-0.699-0.201-1c0-0.199-0.1-0.4-0.1-0.6
    c-0.1-0.4-0.1-0.699-0.1-1.1c0-0.201,0-0.301-0.1-0.5c0-0.5-0.101-1-0.101-1.6V48.1l0,0c0-0.5,0-1,0.101-1.399c0-0.2,0-0.3,0-0.5
    c0-0.399,0.1-0.7,0.1-1.101c0-0.199,0.1-0.5,0.1-0.699c0.1-0.301,0.1-0.7,0.201-1c0.101-0.301,0.101-0.6,0.2-0.9
    c0-0.1,0.1-0.3,0.1-0.4c0.301-1.1,0.7-2.199,1.1-3.299l0,0c0.601-1.4,1.301-2.801,2.102-4.201c0,0,0-0.1,0.101-0.1L7.502,0.5
    C4.601,5.4,2.4,10.7,1.199,15.9c-0.8,2.3-1.199,5-1.199,8v1.3v137.201V358.1c0,16,11.503,22.5,25.607,14.5l23.206-13.199
    c14.104-8,25.608-27.6,25.608-43.6v-82l33.409,18.9L318.393,372.6c14.104,8,25.606,1.5,25.606-14.5v-26.398
    c0-16-11.503-35.602-25.606-43.602l-72.021-41l72.121-40.898C332.496,198,343.999,178.401,343.999,162.401z"/>
</svg>
