<?xml version="1.0" encoding="utf-8"?>
<!-- Generator: Adobe Illustrator 16.0.0, SVG Export Plug-In . SVG Version: 6.00 Build 0)  -->
<!DOCTYPE svg PUBLIC "-//W3C//DTD SVG 1.1//EN" "http://www.w3.org/Graphics/SVG/1.1/DTD/svg11.dtd">
<svg version="1.1" id="Layer_1" xmlns="http://www.w3.org/2000/svg" xmlns:xlink="http://www.w3.org/1999/xlink" x="0px" y="0px"
     width="113px" height="119px" viewBox="1.4 0.25 113 119" enable-background="new 1.4 0.25 113 119" xml:space="preserve">
<path fill="#ED2926" d="M100.048,19.696L71.95,3.593c-7.784-4.457-20.519-4.457-28.301,0L15.55,19.696
    c-3.941,2.228-7.479,6.076-10.005,10.431C2.916,34.481,1.4,39.343,1.4,43.799v32.003c0,8.811,6.368,19.647,14.15,24.103l28.2,16.002
    c3.841,2.229,8.995,3.344,14.15,3.344c5.054,0,10.209-1.115,14.15-3.344l28.199-16.002c7.783-4.455,14.15-15.292,14.15-24.103
    V43.799c0-4.456-1.616-9.419-4.145-13.773C107.425,25.671,103.991,21.822,100.048,19.696z"/>
</svg>
